<svg xmlns="http://www.w3.org/2000/svg" xmlns:xlink="http://www.w3.org/1999/xlink" contentStyleType="text/css" height="798px" preserveAspectRatio="none" style="width:699px;height:798px;background:#F9F9F9;" version="1.1" viewBox="0 0 699 798" width="699px" zoomAndPan="magnify"><defs/><g><rect fill="#F9F9F9" height="798" style="stroke:none;stroke-width:1;" width="699" x="0" y="0"/><!--cluster Data Sources--><g id="cluster_Data Sources"><path d="M8.5,6 L103.4189,6 A3.75,3.75 0 0 1 105.9189,8.5 L112.9189,28.4883 L605.5,28.4883 A2.5,2.5 0 0 1 608,30.9883 L608,90.99 A2.5,2.5 0 0 1 605.5,93.49 L8.5,93.49 A2.5,2.5 0 0 1 6,90.99 L6,8.5 A2.5,2.5 0 0 1 8.5,6 " fill="none" style="stroke:#000000;stroke-width:1.5;"/><line style="stroke:#000000;stroke-width:1.5;" x1="6" x2="112.9189" y1="28.4883" y2="28.4883"/><text fill="#000000" font-family="sans-serif" font-size="14" font-weight="bold" lengthAdjust="spacing" textLength="93.9189" x="10" y="21.5352">Data Sources</text></g><!--cluster Adapters--><g id="cluster_Adapters"><path d="M61.5,157.49 L127.749,157.49 A3.75,3.75 0 0 1 130.249,159.99 L137.249,179.9783 L566.5,179.9783 A2.5,2.5 0 0 1 569,182.4783 L569,242.48 A2.5,2.5 0 0 1 566.5,244.98 L61.5,244.98 A2.5,2.5 0 0 1 59,242.48 L59,159.99 A2.5,2.5 0 0 1 61.5,157.49 " fill="none" style="stroke:#000000;stroke-width:1.5;"/><line style="stroke:#000000;stroke-width:1.5;" x1="59" x2="137.249" y1="179.9783" y2="179.9783"/><text fill="#000000" font-family="sans-serif" font-size="14" font-weight="bold" lengthAdjust="spacing" textLength="65.249" x="63" y="173.0252">Adapters</text></g><!--cluster Core ATC System--><g id="cluster_Core ATC System"><path d="M50.5,308.98 L175.6816,308.98 A3.75,3.75 0 0 1 178.1816,311.48 L185.1816,331.4683 L689.5,331.4683 A2.5,2.5 0 0 1 692,333.9683 L692,637.43 A2.5,2.5 0 0 1 689.5,639.93 L50.5,639.93 A2.5,2.5 0 0 1 48,637.43 L48,311.48 A2.5,2.5 0 0 1 50.5,308.98 " fill="none" style="stroke:#000000;stroke-width:1.5;"/><line style="stroke:#000000;stroke-width:1.5;" x1="48" x2="185.1816" y1="331.4683" y2="331.4683"/><text fill="#000000" font-family="sans-serif" font-size="14" font-weight="bold" lengthAdjust="spacing" textLength="124.1816" x="52" y="324.5152">Core ATC System</text></g><!--cluster Outputs--><g id="cluster_Outputs"><path d="M66.5,703.93 L125.9541,703.93 A3.75,3.75 0 0 1 128.4541,706.43 L135.4541,726.4183 L573.5,726.4183 A2.5,2.5 0 0 1 576,728.9183 L576,788.92 A2.5,2.5 0 0 1 573.5,791.42 L66.5,791.42 A2.5,2.5 0 0 1 64,788.92 L64,706.43 A2.5,2.5 0 0 1 66.5,703.93 " fill="none" style="stroke:#000000;stroke-width:1.5;"/><line style="stroke:#000000;stroke-width:1.5;" x1="64" x2="135.4541" y1="726.4183" y2="726.4183"/><text fill="#000000" font-family="sans-serif" font-size="14" font-weight="bold" lengthAdjust="spacing" textLength="58.4541" x="68" y="719.4652">Outputs</text></g><!--entity Weather Radar--><g id="elem_Weather Radar"><rect fill="#F1F1F1" height="36.4883" rx="2.5" ry="2.5" style="stroke:#181818;stroke-width:0.5;" width="118.2461" x="21.88" y="41"/><text fill="#000000" font-family="sans-serif" font-size="14" lengthAdjust="spacing" textLength="98.2461" x="31.88" y="64.5352">Weather Radar</text></g><!--entity Primary Radar--><g id="elem_Primary Radar"><rect fill="#F1F1F1" height="36.4883" rx="2.5" ry="2.5" style="stroke:#181818;stroke-width:0.5;" width="114.6436" x="174.68" y="41"/><text fill="#000000" font-family="sans-serif" font-size="14" lengthAdjust="spacing" textLength="94.6436" x="184.68" y="64.5352">Primary Radar</text></g><!--entity Secondary Radar--><g id="elem_Secondary Radar"><rect fill="#F1F1F1" height="36.4883" rx="2.5" ry="2.5" style="stroke:#181818;stroke-width:0.5;" width="132.6699" x="324.67" y="41"/><text fill="#000000" font-family="sans-serif" font-size="14" lengthAdjust="spacing" textLength="112.6699" x="334.67" y="64.5352">Secondary Radar</text></g><!--entity ADS-B Feed--><g id="elem_ADS-B Feed"><rect fill="#F1F1F1" height="36.4883" rx="2.5" ry="2.5" style="stroke:#181818;stroke-width:0.5;" width="100.1855" x="491.91" y="41"/><text fill="#000000" font-family="sans-serif" font-size="14" lengthAdjust="spacing" textLength="80.1855" x="501.91" y="64.5352">ADS-B Feed</text></g><!--entity Weather Data Adapter--><g id="elem_Weather Data Adapter"><rect fill="#F1F1F1" height="36.4883" rx="2.5" ry="2.5" style="stroke:#181818;stroke-width:0.5;" width="168.7842" x="74.61" y="192.49"/><text fill="#000000" font-family="sans-serif" font-size="14" lengthAdjust="spacing" textLength="148.7842" x="84.61" y="216.0252">Weather Data Adapter</text></g><!--entity Radar Adapter--><g id="elem_Radar Adapter"><rect fill="#F1F1F1" height="36.4883" rx="2.5" ry="2.5" style="stroke:#181818;stroke-width:0.5;" width="117.0635" x="278.47" y="192.49"/><text fill="#000000" font-family="sans-serif" font-size="14" lengthAdjust="spacing" textLength="97.0635" x="288.47" y="216.0252">Radar Adapter</text></g><!--entity ADS-B Adapter--><g id="elem_ADS-B Adapter"><rect fill="#F1F1F1" height="36.4883" rx="2.5" ry="2.5" style="stroke:#181818;stroke-width:0.5;" width="122.0469" x="430.98" y="192.49"/><text fill="#000000" font-family="sans-serif" font-size="14" lengthAdjust="spacing" textLength="102.0469" x="440.98" y="216.0252">ADS-B Adapter</text></g><!--entity Aeron Cluster--><g id="elem_Aeron Cluster"><rect fill="#F1F1F1" height="52.9766" rx="2.5" ry="2.5" style="stroke:#181818;stroke-width:0.5;" width="113.2285" x="280.39" y="343.98"/><text fill="#000000" font-family="sans-serif" font-size="14" font-style="italic" lengthAdjust="spacing" textLength="62.9932" x="305.5077" y="367.5152">&#171;Cluster&#187;</text><text fill="#000000" font-family="sans-serif" font-size="14" lengthAdjust="spacing" textLength="93.2285" x="290.39" y="384.0034">Aeron Cluster</text></g><!--entity Conflict Detection Algorithm--><g id="elem_Conflict Detection Algorithm"><rect fill="#F1F1F1" height="36.4883" rx="2.5" ry="2.5" style="stroke:#181818;stroke-width:0.5;" width="214.3525" x="63.82" y="473.96"/><text fill="#000000" font-family="sans-serif" font-size="14" lengthAdjust="spacing" textLength="194.3525" x="73.82" y="497.4952">Conflict Detection Algorithm</text></g><!--entity Sector Balancer--><g id="elem_Sector Balancer"><rect fill="#F1F1F1" height="36.4883" rx="2.5" ry="2.5" style="stroke:#181818;stroke-width:0.5;" width="123.4551" x="313.27" y="473.96"/><text fill="#000000" font-family="sans-serif" font-size="14" lengthAdjust="spacing" textLength="103.4551" x="323.27" y="497.4952">Sector Balancer</text></g><!--entity Weather Routing Algorithm--><g id="elem_Weather Routing Algorithm"><rect fill="#F1F1F1" height="36.4883" rx="2.5" ry="2.5" style="stroke:#181818;stroke-width:0.5;" width="204.4678" x="471.77" y="473.96"/><text fill="#000000" font-family="sans-serif" font-size="14" lengthAdjust="spacing" textLength="184.4678" x="481.77" y="497.4952">Weather Routing Algorithm</text></g><!--entity Shared State--><g id="elem_Shared State"><rect fill="#F1F1F1" height="36.4883" rx="2.5" ry="2.5" style="stroke:#181818;stroke-width:0.5;" width="104.2734" x="284.86" y="587.44"/><text fill="#000000" font-family="sans-serif" font-size="14" lengthAdjust="spacing" textLength="84.2734" x="294.86" y="610.9752">Shared State</text></g><!--entity Controller Terminals--><g id="elem_Controller Terminals"><rect fill="#F1F1F1" height="36.4883" rx="2.5" ry="2.5" style="stroke:#181818;stroke-width:0.5;" width="159.6924" x="80.15" y="738.93"/><text fill="#000000" font-family="sans-serif" font-size="14" lengthAdjust="spacing" textLength="139.6924" x="90.15" y="762.4652">Controller Terminals</text></g><!--entity Airline Systems--><g id="elem_Airline Systems"><rect fill="#F1F1F1" height="36.4883" rx="2.5" ry="2.5" style="stroke:#181818;stroke-width:0.5;" width="123.6807" x="275.16" y="738.93"/><text fill="#000000" font-family="sans-serif" font-size="14" lengthAdjust="spacing" textLength="103.6807" x="285.16" y="762.4652">Airline Systems</text></g><!--entity Pilot Messaging--><g id="elem_Pilot Messaging"><rect fill="#F1F1F1" height="36.4883" rx="2.5" ry="2.5" style="stroke:#181818;stroke-width:0.5;" width="126.1553" x="433.92" y="738.93"/><text fill="#000000" font-family="sans-serif" font-size="14" lengthAdjust="spacing" textLength="106.1553" x="443.92" y="762.4652">Pilot Messaging</text></g><!--link Weather Radar to Weather Data Adapter--><g id="link_Weather Radar_Weather Data Adapter"><path d="M81.15,77.95 C81.95,95.04 84.92,121.25 95,141.49 C104.92,161.41 118.0504,175.5809 132.3004,188.1509 " fill="none" id="Weather Radar-to-Weather Data Adapter" style="stroke:#181818;stroke-width:1;"/><polygon fill="#181818" points="136.8,192.12,132.6967,183.1666,133.0504,188.8124,127.4046,189.1661,136.8,192.12" style="stroke:#181818;stroke-width:1;"/><text fill="#000000" font-family="sans-serif" font-size="13" lengthAdjust="spacing" textLength="84.1064" x="98.9993" y="123.0584">Weather Data</text><text fill="#000000" font-family="sans-serif" font-size="13" lengthAdjust="spacing" textLength="94.2183" x="96" y="138.3689">UDP/Broadcast</text></g><!--link Primary Radar to Radar Adapter--><g id="link_Primary Radar_Radar Adapter"><path d="M234.21,77.97 C237.05,95.32 243.21,121.92 256,141.49 C269.48,162.12 286.1203,176.4155 303.6103,188.6255 " fill="none" id="Primary Radar-to-Radar Adapter" style="stroke:#181818;stroke-width:1;"/><polygon fill="#181818" points="308.53,192.06,303.4401,183.6284,304.4302,189.1979,298.8607,190.188,308.53,192.06" style="stroke:#181818;stroke-width:1;"/><text fill="#000000" font-family="sans-serif" font-size="13" lengthAdjust="spacing" textLength="92.5615" x="257" y="123.0584">Aircraft Tracks</text><text fill="#000000" font-family="sans-serif" font-size="13" lengthAdjust="spacing" textLength="24.4004" x="293.1372" y="138.3689">TCP</text></g><!--link Secondary Radar to Radar Adapter--><g id="link_Secondary Radar_Radar Adapter"><path d="M384.59,77.98 C374.2,106.75 355.8293,157.6272 345.4393,186.3772 " fill="none" id="Secondary Radar-to-Radar Adapter" style="stroke:#181818;stroke-width:1;"/><polygon fill="#181818" points="343.4,192.02,350.2208,184.9153,345.0994,187.3177,342.697,182.1963,343.4,192.02" style="stroke:#181818;stroke-width:1;"/><text fill="#000000" font-family="sans-serif" font-size="13" lengthAdjust="spacing" textLength="113.4644" x="372.99" y="123.0584">Transponder Data</text><text fill="#000000" font-family="sans-serif" font-size="13" lengthAdjust="spacing" textLength="24.4004" x="419.5786" y="138.3689">TCP</text></g><!--link ADS-B Feed to ADS-B Adapter--><g id="link_ADS-B Feed_ADS-B Adapter"><path d="M536.07,77.98 C526.45,106.75 509.4439,157.5801 499.8239,186.3301 " fill="none" id="ADS-B Feed-to-ADS-B Adapter" style="stroke:#181818;stroke-width:1;"/><polygon fill="#181818" points="497.92,192.02,504.5691,184.7544,499.5066,187.2784,496.9826,182.2159,497.92,192.02" style="stroke:#181818;stroke-width:1;"/><text fill="#000000" font-family="sans-serif" font-size="13" lengthAdjust="spacing" textLength="126.2485" x="525.4" y="123.0584">Real-Time Positions</text><text fill="#000000" font-family="sans-serif" font-size="13" lengthAdjust="spacing" textLength="25.9302" x="577.6158" y="138.3689">UDP</text></g><!--link Weather Data Adapter to Aeron Cluster--><g id="link_Weather Data Adapter_Aeron Cluster"><path d="M164.47,229.41 C170.72,247.22 182.39,274.62 200,292.98 C222.34,316.28 247.9393,331.8178 274.8093,344.5678 " fill="none" id="Weather Data Adapter-to-Aeron Cluster" style="stroke:#181818;stroke-width:1;"/><polygon fill="#181818" points="280.23,347.14,273.8137,339.668,275.7127,344.9965,270.3842,346.8956,280.23,347.14" style="stroke:#181818;stroke-width:1;"/><text fill="#000000" font-family="sans-serif" font-size="13" lengthAdjust="spacing" textLength="123.4365" x="201" y="274.5484">Weather Conditions</text><text fill="#000000" font-family="sans-serif" font-size="13" lengthAdjust="spacing" textLength="70.332" x="229.6089" y="289.8589">Aeron/UDP</text></g><!--link Radar Adapter to Aeron Cluster--><g id="link_Radar Adapter_Aeron Cluster"><path d="M337,229.22 C337,256.97 337,305.26 337,337.55 " fill="none" id="Radar Adapter-to-Aeron Cluster" style="stroke:#181818;stroke-width:1;"/><polygon fill="#181818" points="337,343.55,341,334.55,337,338.55,333,334.55,337,343.55" style="stroke:#181818;stroke-width:1;"/><text fill="#000000" font-family="sans-serif" font-size="13" lengthAdjust="spacing" textLength="92.5615" x="338" y="274.5484">Aircraft Tracks</text><text fill="#000000" font-family="sans-serif" font-size="13" lengthAdjust="spacing" textLength="70.332" x="351.1714" y="289.8589">Aeron/UDP</text></g><!--link ADS-B Adapter to Aeron Cluster--><g id="link_ADS-B Adapter_Aeron Cluster"><path d="M484.03,229.26 C475.53,246.7 460.85,273.59 443,292.98 C425.01,312.51 406.3452,326.8765 385.9252,340.2865 " fill="none" id="ADS-B Adapter-to-Aeron Cluster" style="stroke:#181818;stroke-width:1;"/><polygon fill="#181818" points="380.91,343.58,390.6285,341.9832,385.0894,340.8354,386.2371,335.2962,380.91,343.58" style="stroke:#181818;stroke-width:1;"/><text fill="#000000" font-family="sans-serif" font-size="13" lengthAdjust="spacing" textLength="107.8149" x="467.18" y="274.5484">Aircraft Positions</text><text fill="#000000" font-family="sans-serif" font-size="13" lengthAdjust="spacing" textLength="70.332" x="487.9781" y="289.8589">Aeron/UDP</text></g><!--link Aeron Cluster to Conflict Detection Algorithm--><g id="link_Aeron Cluster_Conflict Detection Algorithm"><path d="M279.96,377.95 C246.88,384.73 207.12,398.6 183,426.96 C172.05,439.83 169.7715,453.48 169.7915,467.66 " fill="none" id="Aeron Cluster-to-Conflict Detection Algorithm" style="stroke:#181818;stroke-width:1;"/><polygon fill="#181818" points="169.8,473.66,173.7873,464.6544,169.7929,468.66,165.7873,464.6657,169.8,473.66" style="stroke:#181818;stroke-width:1;"/><text fill="#000000" font-family="sans-serif" font-size="13" lengthAdjust="spacing" textLength="137.5029" x="184" y="440.5284">Aircraft State Updates</text></g><!--link Aeron Cluster to Sector Balancer--><g id="link_Aeron Cluster_Sector Balancer"><path d="M331.12,397.4 C329.08,411.58 328.49,429.21 334,443.96 C338.18,455.15 342.1425,461.1527 350.0825,469.2627 " fill="none" id="Aeron Cluster-to-Sector Balancer" style="stroke:#181818;stroke-width:1;"/><polygon fill="#181818" points="354.28,473.55,350.842,464.3207,350.7821,469.9772,345.1256,469.9173,354.28,473.55" style="stroke:#181818;stroke-width:1;"/><text fill="#000000" font-family="sans-serif" font-size="13" lengthAdjust="spacing" textLength="118.2695" x="335" y="440.5284">Sector Traffic Load</text></g><!--link Aeron Cluster to Weather Routing Algorithm--><g id="link_Aeron Cluster_Weather Routing Algorithm"><path d="M394.06,396.56 C414.4,405.79 437.37,416.53 458,426.96 C487.59,441.91 515.3826,457.3795 538.6026,470.6695 " fill="none" id="Aeron Cluster-to-Weather Routing Algorithm" style="stroke:#181818;stroke-width:1;"/><polygon fill="#181818" points="543.81,473.65,537.9859,465.7077,539.4705,471.1663,534.0119,472.6509,543.81,473.65" style="stroke:#181818;stroke-width:1;"/><text fill="#000000" font-family="sans-serif" font-size="13" lengthAdjust="spacing" textLength="177.0361" x="491.26" y="440.5284">Trajectories + Weather Data</text></g><!--link Conflict Detection Algorithm to Shared State--><g id="link_Conflict Detection Algorithm_Shared State"><path d="M183.33,510.94 C193.87,525.05 210.13,544.5 228,557.44 C245.04,569.79 260.2345,577.5484 279.0545,585.1284 " fill="none" id="Conflict Detection Algorithm-to-Shared State" style="stroke:#181818;stroke-width:1;"/><polygon fill="#181818" points="284.62,587.37,277.7661,580.2972,279.982,585.502,274.7773,587.718,284.62,587.37" style="stroke:#181818;stroke-width:1;"/><text fill="#000000" font-family="sans-serif" font-size="13" lengthAdjust="spacing" textLength="92.917" x="229" y="554.0084">Resolved Plans</text></g><!--link Sector Balancer to Shared State--><g id="link_Sector Balancer_Shared State"><path d="M354.28,510.85 C346.34,518.96 338.18,529.25 334,540.44 C328.38,555.51 328.9098,568.0555 331.4298,581.3155 " fill="none" id="Sector Balancer-to-Shared State" style="stroke:#181818;stroke-width:1;"/><polygon fill="#181818" points="332.55,587.21,334.7993,577.6214,331.6165,582.2979,326.94,579.1151,332.55,587.21" style="stroke:#181818;stroke-width:1;"/><text fill="#000000" font-family="sans-serif" font-size="13" lengthAdjust="spacing" textLength="124.2744" x="335" y="554.0084">Sector Assignments</text></g><!--link Weather Routing Algorithm to Shared State--><g id="link_Weather Routing Algorithm_Shared State"><path d="M546.69,510.93 C524.86,524.67 493.18,543.62 464,557.44 C440.08,568.77 418.3171,577.2707 395.0871,585.4807 " fill="none" id="Weather Routing Algorithm-to-Shared State" style="stroke:#181818;stroke-width:1;"/><polygon fill="#181818" points="389.43,587.48,399.2485,588.2524,394.1442,585.8139,396.5827,580.7096,389.43,587.48" style="stroke:#181818;stroke-width:1;"/><text fill="#000000" font-family="sans-serif" font-size="13" lengthAdjust="spacing" textLength="171.3486" x="496.09" y="554.0084">Weather-Optimized Routes</text></g><!--link Shared State to Controller Terminals--><g id="link_Shared State_Controller Terminals"><path d="M284.37,622.57 C264.3,630.39 242.15,641.34 225,655.93 C197.67,679.18 180.1072,711.3436 169.9672,733.2836 " fill="none" id="Shared State-to-Controller Terminals" style="stroke:#181818;stroke-width:1;"/><polygon fill="#181818" points="167.45,738.73,174.8567,732.2384,169.5477,734.1913,167.5948,728.8822,167.45,738.73" style="stroke:#181818;stroke-width:1;"/><text fill="#000000" font-family="sans-serif" font-size="13" lengthAdjust="spacing" textLength="96.0908" x="226" y="669.4984">Traffic Updates</text><text fill="#000000" font-family="sans-serif" font-size="13" lengthAdjust="spacing" textLength="67.8945" x="242.1548" y="684.8089">WebSocket</text></g><!--link Shared State to Airline Systems--><g id="link_Shared State_Airline Systems"><path d="M336.12,624 C335.69,633.44 335.22,645.32 335,655.93 C334.41,685 335.2031,712.8047 335.9931,732.7947 " fill="none" id="Shared State-to-Airline Systems" style="stroke:#181818;stroke-width:1;"/><polygon fill="#181818" points="336.23,738.79,339.8715,729.6391,336.0326,733.7939,331.8777,729.955,336.23,738.79" style="stroke:#181818;stroke-width:1;"/><text fill="#000000" font-family="sans-serif" font-size="13" lengthAdjust="spacing" textLength="111.6172" x="336" y="669.4984">Schedule Updates</text><text fill="#000000" font-family="sans-serif" font-size="13" lengthAdjust="spacing" textLength="40.1807" x="373.7749" y="684.8089">HTTPS</text></g><!--link Shared State to Pilot Messaging--><g id="link_Shared State_Pilot Messaging"><path d="M389.62,618.66 C412.45,626.13 438.01,637.87 456,655.93 C478.95,678.98 488.4102,710.7812 492.9002,732.7812 " fill="none" id="Shared State-to-Pilot Messaging" style="stroke:#181818;stroke-width:1;"/><polygon fill="#181818" points="494.1,738.66,496.2195,729.0419,493.1002,733.761,488.3811,730.6417,494.1,738.66" style="stroke:#181818;stroke-width:1;"/><text fill="#000000" font-family="sans-serif" font-size="13" lengthAdjust="spacing" textLength="72.4521" x="478.38" y="669.4984">Flight Plans</text><text fill="#000000" font-family="sans-serif" font-size="13" lengthAdjust="spacing" textLength="74.1914" x="479.567" y="684.8089">CPDLC/UHF</text></g><!--SRC=[XLJ1Rjim3BthAuZkiCCGvBoX290u27heKADsqCEMWoenZXPPCYHvGpRitqVBRc8xJeSS751yZtoFbFnHcOexNi8h5yV2sTh8n6hhuCFcS_DZ_fmXR5bPWoPauQGH78h0JQ6HiOgml42uM_F08REr4-Zlu0y3-FQ2F1pGmJENtEsW2QLEbToT-g4CXJNo4cnYotKsMy46KUxOtrwHfUHLG3Sk46jtPn4VcGQHbl4SwPCcrY4iymIoamzOTjnBTDP0eclV0E3-llkxM3IdYJLxhKI0DGOoGr7gKXVMgN0eTvsgG5QkkEP6T3sS_R1rKAOO8mxSeOGiy8331f_gKDNXJJIL3ivgJKGvkb8PhdqhKJcj37OosbYgj0tm5Rtd1PMCl1-1A4pRjOTVr01uLLPQxHNLb-Y5KrKyPECHpcQB6wx35nZ4lvljEfsldELIS1_OUFAHQJWceY09ml5zWDoHU4yiUPAognMvWIQGyRIdyj94XFUsgKKEbu6GpyZrB5SbGcgzQes92XYx8RVb6Ux8nG8oM9vfOjQy8HktF4roRKAFOTJwVnZwQYuaR8o8BE-kT9yqRYXiAqaVFyqrtdw2To7IjDyh0O-q6DFOsxUa7V6FIAJGmwV1of6izoMqdVLlMPoyj_edHL9grRFhpYTHNTRIUrMOajx5_bMvxdkIeykVFT5TAzLlEcgGv2WRfRvDv_hMjuP4Fxjnq9nVy3MpueXXacVyI3HYn05bhR77yP3dQJQ97pyeXDzeLHn2Qo1XatJzcCot3nls3m00]--></g></svg>